<svg width="375" height="232" viewBox="0 0 375 232" fill="none" xmlns="http://www.w3.org/2000/svg">
	<g clip-path="url(#clip0_523_7249)">
		<path
			d="M4.3103 228.42L49.2458 199.217L70.7367 214.453L121.533 210.644L139.768 214.453L186.657 197.312L210.102 69.0729L234.198 146.524L256.34 43.679L279.785 180.806L326.674 205.565L373.563 194.773"
			stroke="#2563EB" stroke-width="1.8669" stroke-linecap="round" stroke-linejoin="round" />
		<path
			d="M-231.452 223.995L-254.31 245.507V255.63H420.977V218.934L395.507 177.176L373.955 194.259L326.933 205.014L279.911 180.34L256.4 43.679L234.195 146.174L210.031 68.9865L186.52 196.79L139.498 213.872L121.212 210.076L70.2717 213.872L48.72 198.688L3.65729 227.791L-20.5068 233.485L-42.7116 223.995L-66.8756 242.343L-93.652 236.016L-114.551 248.67L-138.715 239.18H-185.737L-231.452 223.995Z"
			fill="url(#paint0_linear_523_7249)" />
		<ellipse cx="0.718391" cy="0.716048" rx="0.718391" ry="0.716048"
			transform="matrix(-1 0 0 1 211.207 70.1729)" fill="#2563EB" />
	</g>
	<defs>
		<linearGradient id="paint0_linear_523_7249" x1="257.706" y1="197.422" x2="257.706"
			y2="44.3116" gradientUnits="userSpaceOnUse">
			<stop stop-color="#2563EB" stop-opacity="0" />
			<stop offset="1" stop-color="#2563EB" stop-opacity="0.25" />
		</linearGradient>
		<clipPath id="clip0_523_7249">
			<path
				d="M0 8.6207C0 3.85963 3.85961 0 8.62069 0H366.379C371.14 0 375 3.85961 375 8.62069V223.379C375 228.14 371.14 232 366.379 232H8.62069C3.85961 232 0 228.14 0 223.379V8.6207Z"
				fill="white" />
		</clipPath>
	</defs>
</svg>