<svg width="32" height="32" viewBox="0 0 32 32" fill="none" xmlns="http://www.w3.org/2000/svg">
	<rect width="32" height="32" rx="8.75" fill="url(#paint0_radial_913_957)" />
	<path
		d="M8.53161 16.1107L15.6458 8.9965C13.6366 8.55581 11.4519 9.11666 9.88951 10.6791L6.49475 14.0738C4.05741 16.5112 4.05741 20.4629 6.49475 22.9002C8.93209 25.3375 12.8838 25.3375 15.3211 22.9002L18.7159 19.5055C20.8027 17.4186 21.1028 14.2217 19.6162 11.8156L17.4688 13.963C17.8902 15.1473 17.627 16.5206 16.679 17.4686L13.2843 20.8634C13.1741 20.9736 13.0581 21.0745 12.9374 21.1662C11.6202 22.1665 9.73381 22.0656 8.53161 20.8634C7.2192 19.5509 7.2192 17.4231 8.53161 16.1107Z"
		fill="white" />
	<path
		d="M18.7159 11.358L15.3211 14.7528C14.3732 15.7007 14.1099 17.0741 14.5314 18.2583L12.6053 20.1844C12.5314 20.2583 12.4539 20.3264 12.3734 20.3886C10.8988 17.9845 11.2024 14.7978 13.2843 12.7159L16.679 9.32117C19.1164 6.88383 23.0681 6.88383 25.5054 9.32117C27.9428 11.7585 27.9428 15.7102 25.5054 18.1475L22.1107 21.5423C20.5482 23.1047 18.3636 23.6656 16.3544 23.2249L23.4686 16.1107C24.781 14.7983 24.781 12.6704 23.4686 11.358C22.1561 10.0456 20.0283 10.0456 18.7159 11.358Z"
		fill="white" />
	<defs>
		<radialGradient id="paint0_radial_913_957" cx="0" cy="0" r="1"
			gradientUnits="userSpaceOnUse"
			gradientTransform="translate(26.6667 3.33333) rotate(122.196) scale(21.2707 22.2008)">
			<stop stop-color="#53DDAB" />
			<stop offset="1" stop-color="#2563EB" />
		</radialGradient>
	</defs>
</svg>
	