<svg width="411" height="232" viewBox="0 0 411 232" fill="none" xmlns="http://www.w3.org/2000/svg">
	<g filter="url(#filter0_dd_523_7223)">
		<rect x="20.8733" y="76.4097" width="370.69" height="77.9253" rx="21.1701" fill="white"
			shape-rendering="crispEdges" />
		<rect x="21.5349" y="77.0712" width="369.367" height="76.6022" rx="20.5086" stroke="#E4E4E7"
			stroke-width="1.32313" shape-rendering="crispEdges" />
		<rect x="26.1658" y="81.7021" width="117.602" height="67.3402" rx="15.8776" fill="#BBF7D0" />
		<path fill-rule="evenodd" clip-rule="evenodd"
			d="M47.3357 108.756C45.4358 108.756 43.8956 110.297 43.8956 112.197V113.255C43.8956 113.694 43.5402 114.049 43.1017 114.049C42.6633 114.049 42.3078 113.694 42.3078 113.255V112.197C42.3078 109.42 44.5589 107.169 47.3357 107.169C50.1126 107.169 52.3636 109.42 52.3636 112.197V113.255C52.3636 113.694 52.0082 114.049 51.5698 114.049C51.1313 114.049 50.7759 113.694 50.7759 113.255V112.197C50.7759 110.297 49.2357 108.756 47.3357 108.756Z"
			fill="#15803D" />
		<path
			d="M42.047 112.99C41.0239 112.99 40.1946 113.82 40.1946 114.843V120.929C40.1946 122.537 41.4978 123.84 43.1055 123.84H51.5698C53.1774 123.84 54.4807 122.537 54.4807 120.929V114.843C54.4807 113.82 53.6513 112.99 52.6283 112.99H42.047Z"
			fill="#15803D" />
		<path
			d="M70.4719 116.373V122.372H68.5051V108.9H70.4456V113.913H70.5706C70.8074 113.369 71.1692 112.937 71.656 112.617C72.1427 112.297 72.7786 112.137 73.5636 112.137C74.2565 112.137 74.8617 112.279 75.3791 112.564C75.901 112.849 76.3045 113.275 76.5895 113.841C76.8789 114.402 77.0237 115.104 77.0237 115.946V122.372H75.0568V116.182C75.0568 115.441 74.8661 114.867 74.4845 114.459C74.103 114.047 73.5724 113.841 72.8926 113.841C72.4278 113.841 72.0112 113.939 71.6428 114.137C71.2788 114.334 70.9916 114.623 70.7811 115.005C70.575 115.382 70.4719 115.838 70.4719 116.373ZM84.3648 112.268V113.847H78.8458V112.268H84.3648ZM80.3259 109.848H82.2927V119.406C82.2927 119.787 82.3497 120.074 82.4637 120.267C82.5777 120.456 82.7247 120.585 82.9045 120.655C83.0886 120.721 83.2882 120.754 83.5031 120.754C83.6609 120.754 83.7991 120.743 83.9175 120.721C84.0359 120.699 84.128 120.682 84.1938 120.669L84.549 122.293C84.435 122.337 84.2727 122.381 84.0622 122.425C83.8517 122.473 83.5886 122.499 83.2728 122.504C82.7554 122.513 82.273 122.421 81.8257 122.228C81.3783 122.035 81.0165 121.736 80.7403 121.333C80.464 120.93 80.3259 120.423 80.3259 119.813V109.848ZM91.257 112.268V113.847H85.738V112.268H91.257ZM87.218 109.848H89.1849V119.406C89.1849 119.787 89.2419 120.074 89.3559 120.267C89.4699 120.456 89.6168 120.585 89.7966 120.655C89.9808 120.721 90.1804 120.754 90.3952 120.754C90.5531 120.754 90.6913 120.743 90.8097 120.721C90.9281 120.699 91.0202 120.682 91.0859 120.669L91.4412 122.293C91.3271 122.337 91.1649 122.381 90.9544 122.425C90.7439 122.473 90.4808 122.499 90.165 122.504C89.6475 122.513 89.1651 122.421 88.7178 122.228C88.2705 122.035 87.9087 121.736 87.6324 121.333C87.3562 120.93 87.218 120.423 87.218 119.813V109.848ZM93.4327 126.161V112.268H95.3535V113.906H95.5179C95.6319 113.696 95.7964 113.452 96.0113 113.176C96.2262 112.9 96.5244 112.659 96.9059 112.453C97.2874 112.242 97.7917 112.137 98.4188 112.137C99.2345 112.137 99.9625 112.343 100.603 112.755C101.243 113.167 101.745 113.762 102.109 114.538C102.478 115.314 102.662 116.248 102.662 117.34C102.662 118.432 102.48 119.368 102.116 120.149C101.752 120.925 101.252 121.524 100.616 121.945C99.98 122.361 99.2543 122.57 98.4386 122.57C97.8246 122.57 97.3225 122.467 96.9322 122.26C96.5463 122.054 96.2437 121.813 96.0244 121.537C95.8052 121.261 95.6363 121.015 95.5179 120.8H95.3995V126.161H93.4327ZM95.36 117.32C95.36 118.031 95.4631 118.654 95.6692 119.189C95.8753 119.724 96.1735 120.142 96.5638 120.445C96.9541 120.743 97.4321 120.892 97.9978 120.892C98.5855 120.892 99.0766 120.737 99.4713 120.425C99.866 120.109 100.164 119.682 100.366 119.142C100.572 118.603 100.675 117.996 100.675 117.32C100.675 116.654 100.574 116.055 100.373 115.525C100.175 114.994 99.877 114.575 99.4779 114.268C99.0832 113.961 98.5899 113.808 97.9978 113.808C97.4277 113.808 96.9454 113.955 96.5507 114.248C96.1604 114.542 95.8644 114.952 95.6626 115.478C95.4609 116.005 95.36 116.619 95.36 117.32ZM112.437 114.735L110.654 115.051C110.58 114.823 110.461 114.606 110.299 114.4C110.141 114.194 109.926 114.025 109.654 113.893C109.382 113.762 109.042 113.696 108.635 113.696C108.078 113.696 107.613 113.821 107.24 114.071C106.867 114.316 106.681 114.634 106.681 115.025C106.681 115.362 106.806 115.634 107.056 115.84C107.306 116.046 107.709 116.215 108.266 116.347L109.871 116.715C110.801 116.93 111.494 117.261 111.95 117.708C112.406 118.156 112.634 118.737 112.634 119.452C112.634 120.057 112.459 120.596 112.108 121.07C111.761 121.539 111.277 121.907 110.654 122.175C110.036 122.442 109.319 122.576 108.503 122.576C107.372 122.576 106.448 122.335 105.734 121.853C105.019 121.366 104.58 120.675 104.418 119.781L106.319 119.491C106.438 119.987 106.681 120.362 107.049 120.616C107.418 120.866 107.898 120.991 108.49 120.991C109.135 120.991 109.65 120.857 110.036 120.59C110.422 120.318 110.615 119.987 110.615 119.596C110.615 119.281 110.496 119.015 110.259 118.8C110.027 118.586 109.67 118.423 109.187 118.314L107.477 117.939C106.534 117.724 105.837 117.382 105.385 116.913C104.938 116.443 104.714 115.849 104.714 115.13C104.714 114.533 104.881 114.012 105.214 113.564C105.547 113.117 106.008 112.768 106.595 112.518C107.183 112.264 107.856 112.137 108.615 112.137C109.707 112.137 110.566 112.374 111.193 112.847C111.821 113.316 112.235 113.946 112.437 114.735ZM116.092 122.497C115.733 122.497 115.424 122.37 115.165 122.116C114.906 121.857 114.777 121.546 114.777 121.182C114.777 120.822 114.906 120.515 115.165 120.261C115.424 120.002 115.733 119.873 116.092 119.873C116.452 119.873 116.761 120.002 117.02 120.261C117.279 120.515 117.408 120.822 117.408 121.182C117.408 121.423 117.347 121.644 117.224 121.846C117.106 122.043 116.948 122.201 116.75 122.32C116.553 122.438 116.334 122.497 116.092 122.497ZM116.092 115.143C115.733 115.143 115.424 115.014 115.165 114.755C114.906 114.496 114.777 114.187 114.777 113.827C114.777 113.468 114.906 113.161 115.165 112.906C115.424 112.648 115.733 112.518 116.092 112.518C116.452 112.518 116.761 112.648 117.02 112.906C117.279 113.161 117.408 113.468 117.408 113.827C117.408 114.069 117.347 114.29 117.224 114.492C117.106 114.689 116.948 114.847 116.75 114.965C116.553 115.084 116.334 115.143 116.092 115.143ZM125.174 108.269L120.832 124.398H119.076L123.417 108.269H125.174ZM131.975 108.269L127.634 124.398H125.877L130.219 108.269H131.975Z"
			fill="#15803D" />
		<rect x="149.061" y="81.7021" width="237.21" height="67.3402" rx="15.8776" fill="white" />
		<path
			d="M160.423 127.287C159.595 127.287 158.884 127.18 158.288 126.967C157.693 126.759 157.197 126.483 156.8 126.14C156.408 125.801 156.096 125.438 155.863 125.05L157.228 124.092C157.383 124.295 157.579 124.528 157.816 124.789C158.053 125.055 158.378 125.285 158.789 125.479C159.205 125.677 159.75 125.776 160.423 125.776C161.323 125.776 162.066 125.559 162.652 125.123C163.237 124.687 163.53 124.005 163.53 123.076V120.81H163.385C163.259 121.014 163.08 121.265 162.848 121.565C162.62 121.861 162.291 122.124 161.86 122.357C161.434 122.584 160.858 122.698 160.132 122.698C159.232 122.698 158.424 122.485 157.707 122.059C156.996 121.633 156.432 121.014 156.016 120.2C155.604 119.387 155.399 118.4 155.399 117.238C155.399 116.096 155.599 115.101 156.001 114.254C156.403 113.402 156.962 112.744 157.678 112.279C158.395 111.81 159.222 111.575 160.161 111.575C160.887 111.575 161.463 111.696 161.889 111.938C162.32 112.175 162.649 112.446 162.877 112.751C163.109 113.051 163.288 113.298 163.414 113.492H163.588V111.72H165.244V123.192C165.244 124.15 165.026 124.929 164.59 125.53C164.159 126.135 163.579 126.578 162.848 126.858C162.122 127.144 161.313 127.287 160.423 127.287ZM160.365 121.159C161.052 121.159 161.633 121.002 162.107 120.687C162.582 120.372 162.942 119.92 163.189 119.329C163.436 118.739 163.559 118.032 163.559 117.209C163.559 116.406 163.438 115.697 163.196 115.082C162.954 114.467 162.596 113.986 162.122 113.637C161.647 113.289 161.062 113.114 160.365 113.114C159.639 113.114 159.034 113.298 158.55 113.666C158.07 114.034 157.71 114.528 157.468 115.147C157.231 115.767 157.112 116.454 157.112 117.209C157.112 117.984 157.233 118.669 157.475 119.264C157.722 119.854 158.085 120.319 158.564 120.658C159.048 120.992 159.648 121.159 160.365 121.159ZM173.241 123.105C172.235 123.105 171.351 122.865 170.591 122.386C169.836 121.907 169.246 121.236 168.82 120.375C168.399 119.513 168.188 118.506 168.188 117.354C168.188 116.193 168.399 115.179 168.82 114.312C169.246 113.446 169.836 112.773 170.591 112.294C171.351 111.815 172.235 111.575 173.241 111.575C174.248 111.575 175.129 111.815 175.884 112.294C176.644 112.773 177.235 113.446 177.656 114.312C178.082 115.179 178.295 116.193 178.295 117.354C178.295 118.506 178.082 119.513 177.656 120.375C177.235 121.236 176.644 121.907 175.884 122.386C175.129 122.865 174.248 123.105 173.241 123.105ZM173.241 121.565C174.006 121.565 174.635 121.369 175.129 120.977C175.623 120.585 175.988 120.07 176.226 119.431C176.463 118.792 176.581 118.1 176.581 117.354C176.581 116.609 176.463 115.914 176.226 115.271C175.988 114.627 175.623 114.107 175.129 113.71C174.635 113.313 174.006 113.114 173.241 113.114C172.477 113.114 171.847 113.313 171.354 113.71C170.86 114.107 170.495 114.627 170.257 115.271C170.02 115.914 169.902 116.609 169.902 117.354C169.902 118.1 170.02 118.792 170.257 119.431C170.495 120.07 170.86 120.585 171.354 120.977C171.847 121.369 172.477 121.565 173.241 121.565ZM182.49 122.988C182.132 122.988 181.824 122.86 181.568 122.604C181.311 122.347 181.183 122.04 181.183 121.682C181.183 121.323 181.311 121.016 181.568 120.76C181.824 120.503 182.132 120.375 182.49 120.375C182.848 120.375 183.155 120.503 183.412 120.76C183.669 121.016 183.797 121.323 183.797 121.682C183.797 121.919 183.736 122.137 183.615 122.335C183.499 122.533 183.342 122.693 183.143 122.814C182.95 122.93 182.732 122.988 182.49 122.988ZM191.704 127.287C190.876 127.287 190.165 127.18 189.569 126.967C188.974 126.759 188.478 126.483 188.081 126.14C187.689 125.801 187.377 125.438 187.144 125.05L188.509 124.092C188.664 124.295 188.86 124.528 189.097 124.789C189.335 125.055 189.659 125.285 190.07 125.479C190.487 125.677 191.031 125.776 191.704 125.776C192.604 125.776 193.347 125.559 193.933 125.123C194.518 124.687 194.811 124.005 194.811 123.076V120.81H194.666C194.54 121.014 194.361 121.265 194.129 121.565C193.901 121.861 193.572 122.124 193.141 122.357C192.715 122.584 192.139 122.698 191.413 122.698C190.513 122.698 189.705 122.485 188.988 122.059C188.277 121.633 187.713 121.014 187.297 120.2C186.885 119.387 186.68 118.4 186.68 117.238C186.68 116.096 186.88 115.101 187.282 114.254C187.684 113.402 188.243 112.744 188.959 112.279C189.676 111.81 190.503 111.575 191.442 111.575C192.169 111.575 192.745 111.696 193.17 111.938C193.601 112.175 193.93 112.446 194.158 112.751C194.39 113.051 194.569 113.298 194.695 113.492H194.869V111.72H196.525V123.192C196.525 124.15 196.307 124.929 195.871 125.53C195.441 126.135 194.86 126.578 194.129 126.858C193.403 127.144 192.594 127.287 191.704 127.287ZM191.646 121.159C192.333 121.159 192.914 121.002 193.388 120.687C193.863 120.372 194.223 119.92 194.47 119.329C194.717 118.739 194.84 118.032 194.84 117.209C194.84 116.406 194.719 115.697 194.477 115.082C194.235 114.467 193.877 113.986 193.403 113.637C192.928 113.289 192.343 113.114 191.646 113.114C190.92 113.114 190.315 113.298 189.831 113.666C189.351 114.034 188.991 114.528 188.749 115.147C188.512 115.767 188.393 116.454 188.393 117.209C188.393 117.984 188.514 118.669 188.756 119.264C189.003 119.854 189.366 120.319 189.845 120.658C190.329 120.992 190.929 121.159 191.646 121.159ZM204.523 123.105C203.516 123.105 202.632 122.865 201.873 122.386C201.117 121.907 200.527 121.236 200.101 120.375C199.68 119.513 199.469 118.506 199.469 117.354C199.469 116.193 199.68 115.179 200.101 114.312C200.527 113.446 201.117 112.773 201.873 112.294C202.632 111.815 203.516 111.575 204.523 111.575C205.529 111.575 206.41 111.815 207.165 112.294C207.925 112.773 208.516 113.446 208.937 114.312C209.363 115.179 209.576 116.193 209.576 117.354C209.576 118.506 209.363 119.513 208.937 120.375C208.516 121.236 207.925 121.907 207.165 122.386C206.41 122.865 205.529 123.105 204.523 123.105ZM204.523 121.565C205.287 121.565 205.917 121.369 206.41 120.977C206.904 120.585 207.269 120.07 207.507 119.431C207.744 118.792 207.862 118.1 207.862 117.354C207.862 116.609 207.744 115.914 207.507 115.271C207.269 114.627 206.904 114.107 206.41 113.71C205.917 113.313 205.287 113.114 204.523 113.114C203.758 113.114 203.129 113.313 202.635 113.71C202.141 114.107 201.776 114.627 201.539 115.271C201.301 115.914 201.183 116.609 201.183 117.354C201.183 118.1 201.301 118.792 201.539 119.431C201.776 120.07 202.141 120.585 202.635 120.977C203.129 121.369 203.758 121.565 204.523 121.565ZM221.242 111.72L217.118 122.872H215.376L211.252 111.72H213.11L216.189 120.607H216.305L219.383 111.72H221.242ZM224.384 122.988C224.026 122.988 223.719 122.86 223.462 122.604C223.206 122.347 223.078 122.04 223.078 121.682C223.078 121.323 223.206 121.016 223.462 120.76C223.719 120.503 224.026 120.375 224.384 120.375C224.743 120.375 225.05 120.503 225.306 120.76C225.563 121.016 225.691 121.323 225.691 121.682C225.691 121.919 225.631 122.137 225.51 122.335C225.394 122.533 225.236 122.693 225.038 122.814C224.844 122.93 224.626 122.988 224.384 122.988ZM229.097 122.872V111.72H230.752V113.463H230.897C231.13 112.867 231.505 112.405 232.023 112.076C232.541 111.742 233.163 111.575 233.889 111.575C234.624 111.575 235.237 111.742 235.726 112.076C236.219 112.405 236.604 112.867 236.88 113.463H236.996C237.282 112.887 237.71 112.429 238.281 112.091C238.852 111.747 239.537 111.575 240.336 111.575C241.333 111.575 242.149 111.887 242.783 112.512C243.417 113.131 243.734 114.097 243.734 115.409V122.872H242.02V115.409C242.02 114.586 241.795 113.998 241.345 113.644C240.895 113.291 240.365 113.114 239.755 113.114C238.971 113.114 238.364 113.351 237.933 113.826C237.502 114.295 237.287 114.891 237.287 115.612V122.872H235.544V115.234C235.544 114.6 235.338 114.09 234.927 113.702C234.516 113.31 233.986 113.114 233.337 113.114C232.892 113.114 232.475 113.233 232.088 113.47C231.706 113.707 231.396 114.036 231.159 114.457C230.926 114.874 230.81 115.355 230.81 115.902V122.872H229.097ZM247.902 127.054C247.611 127.054 247.352 127.03 247.125 126.982C246.897 126.938 246.74 126.895 246.653 126.851L247.089 125.341C247.505 125.447 247.873 125.486 248.192 125.457C248.512 125.428 248.795 125.285 249.042 125.029C249.293 124.777 249.523 124.368 249.731 123.802L250.051 122.93L245.927 111.72H247.786L250.864 120.607H250.98L254.059 111.72H255.917L251.184 124.499C250.971 125.075 250.707 125.551 250.392 125.929C250.078 126.311 249.712 126.595 249.296 126.778C248.884 126.962 248.42 127.054 247.902 127.054Z"
			fill="#18181B" />
		<path d="M264.178 107.306L259.386 125.109H257.818L262.61 107.306H264.178Z" fill="#71717A" />
		<g clip-path="url(#clip0_523_7223)">
			<path
				d="M269.448 122.884L266.05 111.731H267.851L270.262 120.27H270.378L272.759 111.731H274.589L276.942 120.241H277.058L279.469 111.731H281.27L277.871 122.884H276.187L273.747 114.316H273.573L271.133 122.884H269.448ZM285.533 116.175V122.884H283.819V108.013H285.533V113.474H285.678C285.939 112.898 286.331 112.44 286.854 112.101C287.382 111.758 288.084 111.586 288.96 111.586C289.72 111.586 290.386 111.738 290.957 112.043C291.528 112.343 291.971 112.806 292.286 113.43C292.605 114.05 292.765 114.839 292.765 115.797V122.884H291.051V115.914C291.051 115.028 290.821 114.343 290.361 113.859C289.906 113.37 289.275 113.125 288.466 113.125C287.905 113.125 287.401 113.244 286.956 113.481C286.515 113.718 286.167 114.064 285.91 114.519C285.659 114.974 285.533 115.526 285.533 116.175ZM299.466 123.146C298.759 123.146 298.118 123.013 297.542 122.746C296.966 122.475 296.508 122.086 296.169 121.577C295.831 121.064 295.661 120.445 295.661 119.718C295.661 119.079 295.787 118.561 296.039 118.164C296.29 117.763 296.627 117.448 297.048 117.221C297.469 116.993 297.934 116.824 298.442 116.712C298.955 116.596 299.471 116.504 299.989 116.436C300.666 116.349 301.216 116.284 301.637 116.24C302.063 116.192 302.373 116.112 302.567 116.001C302.765 115.889 302.864 115.696 302.864 115.42V115.362C302.864 114.645 302.668 114.089 302.276 113.692C301.889 113.295 301.301 113.096 300.512 113.096C299.693 113.096 299.052 113.275 298.587 113.633C298.123 113.992 297.796 114.374 297.607 114.781L295.981 114.2C296.271 113.522 296.658 112.995 297.142 112.617C297.631 112.235 298.164 111.968 298.74 111.818C299.321 111.663 299.892 111.586 300.454 111.586C300.812 111.586 301.223 111.629 301.688 111.717C302.157 111.799 302.61 111.971 303.046 112.232C303.486 112.493 303.852 112.888 304.142 113.416C304.433 113.943 304.578 114.65 304.578 115.536V122.884H302.864V121.374H302.777C302.661 121.616 302.467 121.875 302.196 122.151C301.925 122.427 301.564 122.662 301.114 122.855C300.664 123.049 300.115 123.146 299.466 123.146ZM299.727 121.606C300.405 121.606 300.976 121.473 301.441 121.207C301.911 120.941 302.264 120.597 302.501 120.176C302.743 119.755 302.864 119.312 302.864 118.847V117.279C302.792 117.366 302.632 117.446 302.385 117.518C302.143 117.586 301.862 117.647 301.543 117.7C301.228 117.748 300.921 117.792 300.621 117.83C300.325 117.864 300.086 117.893 299.902 117.918C299.456 117.976 299.04 118.07 298.653 118.201C298.27 118.327 297.96 118.518 297.723 118.774C297.491 119.026 297.375 119.37 297.375 119.806C297.375 120.401 297.595 120.851 298.036 121.156C298.481 121.456 299.045 121.606 299.727 121.606ZM312.84 111.731V113.183H307.06V111.731H312.84ZM308.745 109.059H310.458V119.689C310.458 120.173 310.529 120.536 310.669 120.779C310.814 121.016 310.998 121.175 311.221 121.258C311.448 121.335 311.688 121.374 311.94 121.374C312.129 121.374 312.283 121.364 312.404 121.345C312.525 121.321 312.622 121.301 312.695 121.287L313.043 122.826C312.927 122.87 312.765 122.913 312.557 122.957C312.349 123.005 312.085 123.03 311.765 123.03C311.281 123.03 310.807 122.925 310.342 122.717C309.882 122.509 309.5 122.192 309.195 121.766C308.895 121.34 308.745 120.803 308.745 120.154V109.059ZM323.402 114.229L321.863 114.665C321.766 114.408 321.623 114.159 321.435 113.917C321.251 113.67 320.999 113.466 320.679 113.307C320.36 113.147 319.951 113.067 319.452 113.067C318.77 113.067 318.201 113.224 317.746 113.539C317.296 113.849 317.071 114.243 317.071 114.723C317.071 115.149 317.225 115.485 317.535 115.732C317.845 115.979 318.329 116.185 318.988 116.349L320.643 116.756C321.64 116.998 322.383 117.368 322.872 117.867C323.361 118.361 323.606 118.997 323.606 119.776C323.606 120.415 323.422 120.987 323.054 121.49C322.691 121.994 322.182 122.391 321.529 122.681C320.875 122.971 320.115 123.117 319.249 123.117C318.111 123.117 317.17 122.87 316.424 122.376C315.679 121.882 315.207 121.161 315.008 120.212L316.635 119.806C316.79 120.406 317.083 120.856 317.514 121.156C317.949 121.456 318.518 121.606 319.22 121.606C320.019 121.606 320.653 121.437 321.122 121.098C321.597 120.754 321.834 120.343 321.834 119.864C321.834 119.476 321.698 119.152 321.427 118.891C321.156 118.624 320.74 118.426 320.178 118.295L318.32 117.86C317.298 117.617 316.548 117.242 316.069 116.734C315.594 116.221 315.357 115.58 315.357 114.81C315.357 114.181 315.534 113.624 315.887 113.14C316.245 112.656 316.732 112.276 317.346 112C317.966 111.724 318.668 111.586 319.452 111.586C320.556 111.586 321.422 111.828 322.052 112.312C322.686 112.796 323.136 113.435 323.402 114.229ZM329.751 123.146C329.045 123.146 328.403 123.013 327.827 122.746C327.251 122.475 326.794 122.086 326.455 121.577C326.116 121.064 325.946 120.445 325.946 119.718C325.946 119.079 326.072 118.561 326.324 118.164C326.576 117.763 326.912 117.448 327.333 117.221C327.754 116.993 328.219 116.824 328.727 116.712C329.241 116.596 329.756 116.504 330.274 116.436C330.952 116.349 331.501 116.284 331.922 116.24C332.348 116.192 332.658 116.112 332.852 116.001C333.05 115.889 333.15 115.696 333.15 115.42V115.362C333.15 114.645 332.953 114.089 332.561 113.692C332.174 113.295 331.586 113.096 330.797 113.096C329.979 113.096 329.337 113.275 328.873 113.633C328.408 113.992 328.081 114.374 327.892 114.781L326.266 114.2C326.556 113.522 326.944 112.995 327.428 112.617C327.917 112.235 328.449 111.968 329.025 111.818C329.606 111.663 330.177 111.586 330.739 111.586C331.097 111.586 331.508 111.629 331.973 111.717C332.443 111.799 332.895 111.971 333.331 112.232C333.772 112.493 334.137 112.888 334.427 113.416C334.718 113.943 334.863 114.65 334.863 115.536V122.884H333.15V121.374H333.062C332.946 121.616 332.753 121.875 332.481 122.151C332.21 122.427 331.85 122.662 331.4 122.855C330.949 123.049 330.4 123.146 329.751 123.146ZM330.013 121.606C330.69 121.606 331.262 121.473 331.726 121.207C332.196 120.941 332.549 120.597 332.786 120.176C333.028 119.755 333.15 119.312 333.15 118.847V117.279C333.077 117.366 332.917 117.446 332.67 117.518C332.428 117.586 332.147 117.647 331.828 117.7C331.513 117.748 331.206 117.792 330.906 117.83C330.611 117.864 330.371 117.893 330.187 117.918C329.742 117.976 329.325 118.07 328.938 118.201C328.556 118.327 328.246 118.518 328.009 118.774C327.776 119.026 327.66 119.37 327.66 119.806C327.66 120.401 327.88 120.851 328.321 121.156C328.766 121.456 329.33 121.606 330.013 121.606ZM338.275 127.067V111.731H339.93V113.503H340.134C340.26 113.309 340.434 113.062 340.657 112.762C340.884 112.457 341.208 112.186 341.63 111.949C342.056 111.707 342.632 111.586 343.358 111.586C344.297 111.586 345.125 111.821 345.841 112.29C346.558 112.76 347.117 113.425 347.518 114.287C347.92 115.149 348.121 116.165 348.121 117.337C348.121 118.518 347.92 119.542 347.518 120.408C347.117 121.27 346.56 121.938 345.848 122.412C345.137 122.882 344.316 123.117 343.387 123.117C342.67 123.117 342.097 122.998 341.666 122.761C341.235 122.519 340.903 122.245 340.671 121.94C340.439 121.631 340.26 121.374 340.134 121.171H339.989V127.067H338.275ZM339.96 117.308C339.96 118.15 340.083 118.893 340.33 119.537C340.577 120.176 340.937 120.677 341.412 121.04C341.886 121.398 342.467 121.577 343.154 121.577C343.871 121.577 344.469 121.388 344.948 121.011C345.432 120.628 345.795 120.115 346.037 119.472C346.284 118.823 346.407 118.102 346.407 117.308C346.407 116.523 346.286 115.817 346.044 115.187C345.807 114.553 345.447 114.052 344.962 113.684C344.483 113.312 343.881 113.125 343.154 113.125C342.457 113.125 341.872 113.302 341.397 113.655C340.923 114.004 340.565 114.493 340.323 115.122C340.081 115.747 339.96 116.475 339.96 117.308ZM351.019 127.067V111.731H352.675V113.503H352.878C353.004 113.309 353.178 113.062 353.401 112.762C353.628 112.457 353.953 112.186 354.374 111.949C354.8 111.707 355.376 111.586 356.102 111.586C357.041 111.586 357.869 111.821 358.585 112.29C359.302 112.76 359.861 113.425 360.263 114.287C360.664 115.149 360.865 116.165 360.865 117.337C360.865 118.518 360.664 119.542 360.263 120.408C359.861 121.27 359.304 121.938 358.593 122.412C357.881 122.882 357.06 123.117 356.131 123.117C355.415 123.117 354.841 122.998 354.41 122.761C353.979 122.519 353.648 122.245 353.415 121.94C353.183 121.631 353.004 121.374 352.878 121.171H352.733V127.067H351.019ZM352.704 117.308C352.704 118.15 352.827 118.893 353.074 119.537C353.321 120.176 353.682 120.677 354.156 121.04C354.63 121.398 355.211 121.577 355.899 121.577C356.615 121.577 357.213 121.388 357.692 121.011C358.176 120.628 358.539 120.115 358.781 119.472C359.028 118.823 359.152 118.102 359.152 117.308C359.152 116.523 359.031 115.817 358.789 115.187C358.551 114.553 358.191 114.052 357.707 113.684C357.227 113.312 356.625 113.125 355.899 113.125C355.202 113.125 354.616 113.302 354.141 113.655C353.667 114.004 353.309 114.493 353.067 115.122C352.825 115.747 352.704 116.475 352.704 117.308Z"
				fill="#71717A" />
			<path d="M265.815 106.991L265.815 123.641" stroke="#71717A" stroke-width="0.925029"
				stroke-linecap="round" />
		</g>
	</g>
	<defs>
		<filter id="filter0_dd_523_7223" x="-21.4669" y="42.0082" width="455.37" height="162.606"
			filterUnits="userSpaceOnUse" color-interpolation-filters="sRGB">
			<feFlood flood-opacity="0" result="BackgroundImageFix" />
			<feColorMatrix in="SourceAlpha" type="matrix"
				values="0 0 0 0 0 0 0 0 0 0 0 0 0 0 0 0 0 0 127 0" result="hardAlpha" />
			<feOffset dy="7.93879" />
			<feGaussianBlur stdDeviation="21.1701" />
			<feComposite in2="hardAlpha" operator="out" />
			<feColorMatrix type="matrix"
				values="0 0 0 0 0.2 0 0 0 0 0.254902 0 0 0 0 0.333333 0 0 0 0.1 0" />
			<feBlend mode="normal" in2="BackgroundImageFix" result="effect1_dropShadow_523_7223" />
			<feColorMatrix in="SourceAlpha" type="matrix"
				values="0 0 0 0 0 0 0 0 0 0 0 0 0 0 0 0 0 0 127 0" result="hardAlpha" />
			<feOffset dy="2.64626" />
			<feGaussianBlur stdDeviation="2.64626" />
			<feComposite in2="hardAlpha" operator="out" />
			<feColorMatrix type="matrix"
				values="0 0 0 0 0.2 0 0 0 0 0.254902 0 0 0 0 0.333333 0 0 0 0.1 0" />
			<feBlend mode="normal" in2="effect1_dropShadow_523_7223"
				result="effect2_dropShadow_523_7223" />
			<feBlend mode="normal" in="SourceGraphic" in2="effect2_dropShadow_523_7223"
				result="shape" />
		</filter>
		<clipPath id="clip0_523_7223">
			<rect width="0.925029" height="24.9758" fill="white"
				transform="translate(265.353 102.884)" />
		</clipPath>
	</defs>
</svg>