<svg width="40" height="40" viewBox="0 0 40 40" fill="none" xmlns="http://www.w3.org/2000/svg">
<rect width="40" height="40" rx="10.9375" fill="url(#paint0_radial_584_5371)"/>
<path d="M25 31.25H15C12.2386 31.25 10 29.0114 10 26.25V18.125C10 17.0895 10.8395 16.25 11.875 16.25H28.125C29.1605 16.25 30 17.0895 30 18.125V26.25C30 29.0114 27.7614 31.25 25 31.25Z" stroke="white" stroke-width="2.5"/>
<path d="M26.25 16.25H13.75V14.4952C13.75 11.7705 15.4476 9.33429 18.0037 8.39071L18.1992 8.31854C19.6239 7.79264 21.1953 7.82848 22.5945 8.41876C24.8099 9.35338 26.25 11.524 26.25 13.9284V16.25Z" stroke="white" stroke-width="2.5"/>
<circle cx="20" cy="22" r="2" fill="white"/>
<path d="M18.75 25C18.75 25.6904 19.3096 26.25 20 26.25C20.6904 26.25 21.25 25.6904 21.25 25H18.75ZM18.75 22V25H21.25V22H18.75Z" fill="white"/>
<defs>
<radialGradient id="paint0_radial_584_5371" cx="0" cy="0" r="1" gradientUnits="userSpaceOnUse" gradientTransform="translate(33.3333 4.16667) rotate(122.196) scale(26.5884 27.751)">
<stop stop-color="#53DDAB"/>
<stop offset="1" stop-color="#2563EB"/>
</radialGradient>
</defs>
</svg>
