<svg width="29" height="28" viewBox="0 0 29 28" fill="none" xmlns="http://www.w3.org/2000/svg">
<rect x="0.5" width="28" height="28" rx="8.75" fill="url(#paint0_radial_57_14546)"/>
<path d="M7.96507 14.0968L14.19 7.87188C12.432 7.48627 10.5203 7.97702 9.15323 9.34413L6.18282 12.3145C4.05015 14.4472 4.05015 17.905 6.18282 20.0376C8.31548 22.1703 11.7732 22.1703 13.9059 20.0376L16.8763 17.0672C18.7023 15.2412 18.9649 12.4439 17.6641 10.3386L15.7851 12.2176C16.1539 13.2538 15.9235 14.4555 15.0941 15.285L12.1236 18.2554C12.0272 18.3518 11.9258 18.4401 11.8201 18.5204C10.6676 19.3956 9.01699 19.3073 7.96506 18.2554C6.8167 17.107 6.8167 15.2452 7.96507 14.0968Z" fill="white"/>
<path d="M16.8763 9.93821L13.9059 12.9086C13.0764 13.7381 12.8461 14.9398 13.2149 15.976L11.5296 17.6613C11.4649 17.7259 11.3971 17.7855 11.3266 17.84C10.0363 15.7364 10.302 12.948 12.1236 11.1264L15.0941 8.15596C17.2267 6.02329 20.6845 6.02329 22.8171 8.15596C24.9498 10.2886 24.9498 13.7464 22.8171 15.879L19.8467 18.8495C18.4796 20.2166 16.568 20.7073 14.81 20.3217L21.0349 14.0968C22.1833 12.9484 22.1833 11.0866 21.0349 9.93821C19.8865 8.78985 18.0247 8.78985 16.8763 9.93821Z" fill="white"/>
<defs>
<radialGradient id="paint0_radial_57_14546" cx="0" cy="0" r="1" gradientUnits="userSpaceOnUse" gradientTransform="translate(23.8333 2.91667) rotate(122.196) scale(18.6119 19.4257)">
<stop stopColor="#53DDAB"/>
<stop offset="1" stopColor="#2563EB"/>
</radialGradient>
</defs>
</svg>
